<?xml version="1.0" encoding="UTF-8"?>
<svg version="1.1" xmlns="http://www.w3.org/2000/svg" width="510" height="399">
<path d="M0 0 C4.78120557 3.70129757 6.62421046 6.86992678 7.6418457 12.83520508 C7.76890053 18.46321038 5.59288776 23.41909506 3.58203125 28.59765625 C2.76633074 30.80316495 1.95122357 33.00889319 1.13671875 35.21484375 C0.73291992 36.28444336 0.32912109 37.35404297 -0.08691406 38.45605469 C-1.95012348 43.50256116 -3.62945164 48.60742773 -5.29296875 53.72265625 C-4.33342285 53.99094238 -4.33342285 53.99094238 -3.35449219 54.26464844 C2.58385402 55.96905436 6.31663563 58.07730292 9.80078125 63.390625 C11.09943101 66.73240908 11.13425659 70.05724616 11.26953125 73.59765625 C11.3312854 74.73376343 11.3312854 74.73376343 11.39428711 75.89282227 C11.58182943 79.37569888 11.70703125 82.831256 11.70703125 86.3203125 C11.93089705 98.28314137 16.94160183 109.4008299 23.70703125 119.16015625 C27.5773985 125.67592603 26.54654557 135.42165482 25.70703125 142.72265625 C24.70703125 146.140625 24.70703125 146.140625 23.70703125 148.72265625 C23.12300992 151.30847753 23.12300992 151.30847753 23.70703125 153.72265625 C26.07078691 155.83036359 26.07078691 155.83036359 28.70703125 157.72265625 C31.39878539 161.47090092 31.0384333 165.73329698 31.01953125 170.16015625 C31.03564453 170.91103516 31.05175781 171.66191406 31.06835938 172.43554688 C31.07238909 177.01733744 30.65793254 179.99633564 27.70703125 183.72265625 C25.10657795 185.0228829 23.13481755 184.89772052 20.22265625 184.9597168 C19.07385986 184.9861174 17.92506348 185.01251801 16.74145508 185.03971863 C15.49259521 185.06270523 14.24373535 185.08569183 12.95703125 185.109375 C11.03250122 185.14766167 11.03250122 185.14766167 9.0690918 185.1867218 C6.34543052 185.23975107 3.62172833 185.28864406 0.89794922 185.33520508 C-2.56743026 185.39516009 -6.03233375 185.46946628 -9.49734497 185.54757977 C-12.82488714 185.61964375 -16.15265926 185.67596436 -19.48046875 185.734375 C-20.71313477 185.7634343 -21.94580078 185.79249359 -23.21582031 185.82243347 C-30.02124945 185.92065381 -36.76757894 185.89776869 -43.29296875 183.72265625 C-46.79941642 180.21620858 -45.66223084 175.03327856 -45.66796875 170.28515625 C-45.69246094 169.22232422 -45.71695313 168.15949219 -45.7421875 167.06445312 C-45.74605469 166.04544922 -45.74992187 165.02644531 -45.75390625 163.9765625 C-45.76623291 162.57386108 -45.76623291 162.57386108 -45.77880859 161.14282227 C-45.29296875 158.72265625 -45.29296875 158.72265625 -43.51416016 156.89428711 C-41.29296875 155.72265625 -41.29296875 155.72265625 -37.29296875 155.72265625 C-39.34901049 142.36674286 -42.4556349 129.65778461 -46.98046875 116.91015625 C-57.38264392 85.70363075 -45.4426286 49.58748424 -32.0390625 21.17578125 C-21.76809719 0.86362614 -21.76809719 0.86362614 -13.35546875 -1.91796875 C-8.57711957 -2.75055989 -4.27758798 -2.38291528 0 0 Z M-16.0390625 10.94116211 C-18.14385871 13.9315628 -19.90888504 17.04859656 -21.60546875 20.28515625 C-21.98864258 21.01476562 -22.37181641 21.744375 -22.76660156 22.49609375 C-30.08786345 36.83733103 -35.1215661 52.20707322 -39.29296875 67.72265625 C-39.52757812 68.52058594 -39.7621875 69.31851563 -40.00390625 70.140625 C-45.14163285 89.3884848 -41.33476545 108.74397876 -34.85498047 127.06176758 C-32.12145291 134.87153325 -30.56898206 142.55617104 -29.29296875 150.72265625 C-28.79796875 153.19765625 -28.79796875 153.19765625 -28.29296875 155.72265625 C-15.42296875 155.72265625 -2.55296875 155.72265625 10.70703125 155.72265625 C17.03237099 143.07197677 19.99225977 133.47060842 15.96484375 119.7265625 C14.13796649 115.36361649 11.62972229 111.54270759 8.93188477 107.66894531 C4.89360955 101.83597505 3.46627632 97.04100357 3.46875 89.96875 C3.45263672 88.70224609 3.43652344 87.43574219 3.41992188 86.13085938 C3.40297013 83.47986679 3.39779604 80.82877319 3.40429688 78.17773438 C3.38431641 76.91251953 3.36433594 75.64730469 3.34375 74.34375 C3.34076904 73.19318115 3.33778809 72.0426123 3.3347168 70.85717773 C2.51839307 66.7806393 0.93646796 65.25971028 -2.29296875 62.72265625 C-5.54509768 62.72265625 -7.39125052 62.98573062 -9.92944336 65.06005859 C-15.22117793 71.51246906 -12.3125955 87.28643914 -12.19702148 95.46435547 C-12.16689667 97.74577616 -12.14909019 100.02703834 -12.1328125 102.30859375 C-12.11935287 103.0085849 -12.10589325 103.70857605 -12.09202576 104.42977905 C-12.07294729 108.10814061 -12.19149129 109.57044006 -14.29296875 112.72265625 C-15.94296875 112.39265625 -17.59296875 112.06265625 -19.29296875 111.72265625 C-21.08510234 64.86678751 -21.08510234 64.86678751 -11.60693359 44.65625 C-9.10991083 39.08132887 -7.17228355 33.30110831 -5.16796875 27.53515625 C-4.76586182 26.44050049 -4.36375488 25.34584473 -3.94946289 24.21801758 C-3.5858667 23.19474365 -3.22227051 22.17146973 -2.84765625 21.1171875 C-2.52265137 20.21846924 -2.19764648 19.31975098 -1.86279297 18.39379883 C-1.04804217 14.57452355 -1.39324443 11.22219678 -3.41796875 7.84765625 C-8.78497888 4.62745017 -12.49523073 6.38854641 -16.0390625 10.94116211 Z M20.70703125 153.72265625 C21.70703125 155.72265625 21.70703125 155.72265625 21.70703125 155.72265625 Z M-37.29296875 163.72265625 C-37.29296875 168.01265625 -37.29296875 172.30265625 -37.29296875 176.72265625 C-17.82296875 176.72265625 1.64703125 176.72265625 21.70703125 176.72265625 C21.70703125 172.43265625 21.70703125 168.14265625 21.70703125 163.72265625 C2.23703125 163.72265625 -17.23296875 163.72265625 -37.29296875 163.72265625 Z " fill="#42606D" transform="translate(76.29296875,112.27734375)"/>
<path d="M0 0 C2.05078125 0.03255208 4.1015625 0.06510417 6.15234375 0.09765625 C6.41789063 0.92910156 6.6834375 1.76054687 6.95703125 2.6171875 C7.31023437 3.70386719 7.6634375 4.79054687 8.02734375 5.91015625 C8.54941406 7.52857422 8.54941406 7.52857422 9.08203125 9.1796875 C10.07194028 12.23081427 10.07194028 12.23081427 12.15234375 15.09765625 C15.91082549 16.3504835 19.40725294 16.2214746 23.3203125 16.1953125 C24.11512527 16.19389755 24.90993805 16.1924826 25.72883606 16.19102478 C28.265877 16.18543003 30.8028295 16.17287853 33.33984375 16.16015625 C35.0605456 16.15514057 36.78124883 16.15057778 38.50195312 16.14648438 C42.71878405 16.13546232 46.93554891 16.11820131 51.15234375 16.09765625 C51.28511719 15.11023438 51.41789062 14.1228125 51.5546875 13.10546875 C51.73128906 11.82414062 51.90789062 10.5428125 52.08984375 9.22265625 C52.26386719 7.94648438 52.43789062 6.6703125 52.6171875 5.35546875 C53.15234375 2.09765625 53.15234375 2.09765625 54.15234375 0.09765625 C56.79234375 0.09765625 59.43234375 0.09765625 62.15234375 0.09765625 C61.18879022 11.61929634 61.18879022 11.61929634 60.15234375 17.09765625 C61.54453125 17.22140625 61.54453125 17.22140625 62.96484375 17.34765625 C66.15234375 18.09765625 66.15234375 18.09765625 67.81640625 19.5234375 C69.91768538 23.57239349 69.70516132 27.53928195 69.71484375 32.03515625 C69.75158203 32.92912109 69.78832031 33.82308594 69.82617188 34.74414062 C69.83197266 35.61232422 69.83777344 36.48050781 69.84375 37.375 C69.86223999 38.55437134 69.86223999 38.55437134 69.88110352 39.75756836 C68.99772205 42.59415506 67.73927918 44.3255252 65.3653717 46.12181091 C60.14686566 48.42293629 54.11743163 47.65513667 48.5234375 47.5078125 C47.08669903 47.48617033 45.64993428 47.46621326 44.21315002 47.44786072 C41.20933537 47.40387376 38.20656956 47.34217319 35.20336914 47.26733398 C31.3612998 47.17264155 27.51993824 47.1181483 23.67697048 47.07639408 C20.71261525 47.04043851 17.74886169 46.9852286 14.78492928 46.92403984 C13.36849441 46.89670726 11.951943 46.87483144 10.53533745 46.85859871 C8.5537303 46.83258893 6.57255538 46.77832541 4.59155273 46.72290039 C3.466035 46.69893692 2.34051727 46.67497345 1.18089294 46.65028381 C-2.49489977 45.97955197 -4.20802005 44.69878637 -6.84765625 42.09765625 C-7.47875977 39.77929688 -7.47875977 39.77929688 -7.4765625 37.25390625 C-7.47849609 36.33738281 -7.48042969 35.42085938 -7.48242188 34.4765625 C-7.45857422 33.52652344 -7.43472656 32.57648438 -7.41015625 31.59765625 C-7.42111328 30.64761719 -7.43207031 29.69757813 -7.44335938 28.71875 C-7.37098896 21.85803463 -7.37098896 21.85803463 -5.0625 18.50390625 C-2.92870397 17.14911512 -1.33848529 16.45348897 1.15234375 16.09765625 C0.94738281 15.43378906 0.74242187 14.76992188 0.53125 14.0859375 C0.12712891 12.76142578 0.12712891 12.76142578 -0.28515625 11.41015625 C-0.55199219 10.54003906 -0.81882813 9.66992188 -1.09375 8.7734375 C-1.81381754 6.21775738 -2.44762841 3.72312632 -2.84765625 1.09765625 C-1.84765625 0.09765625 -1.84765625 0.09765625 0 0 Z M1.15234375 26.09765625 C1.07990322 28.11729824 1.06857187 30.13932749 1.08984375 32.16015625 C1.09886719 33.26488281 1.10789063 34.36960937 1.1171875 35.5078125 C1.12878906 36.36246094 1.14039063 37.21710938 1.15234375 38.09765625 C8.82771002 38.12078446 16.50307271 38.13857378 24.17846584 38.14946842 C27.74211797 38.1546962 31.30574632 38.16179194 34.86938477 38.1730957 C38.96240472 38.18599801 43.05539955 38.19088531 47.1484375 38.1953125 C48.43382919 38.20047379 49.71922089 38.20563507 51.04356384 38.21095276 C52.22471268 38.21102829 53.40586151 38.21110382 54.62280273 38.21118164 C55.66871078 38.21340225 56.71461884 38.21562286 57.79222107 38.21791077 C60.1092367 38.3641661 60.1092367 38.3641661 61.15234375 37.09765625 C61.25085546 35.26649742 61.28207004 33.43145692 61.27734375 31.59765625 C61.27992188 30.59734375 61.2825 29.59703125 61.28515625 28.56640625 C61.43104757 26.15366003 61.43104757 26.15366003 60.15234375 25.09765625 C58.34725002 24.99866064 56.53827447 24.96966474 54.73046875 24.96826172 C53.57256836 24.96510956 52.41466797 24.9619574 51.22167969 24.95870972 C49.96129883 24.96073395 48.70091797 24.96275818 47.40234375 24.96484375 C45.47696777 24.96340866 45.47696777 24.96340866 43.51269531 24.96194458 C40.79230551 24.96046794 38.0719485 24.96262106 35.3515625 24.96728516 C31.85749706 24.97298244 28.36350842 24.96970326 24.8694458 24.96371269 C21.54707222 24.95923871 18.22471952 24.9623674 14.90234375 24.96484375 C13.64196289 24.96281952 12.38158203 24.96079529 11.08300781 24.95870972 C9.92510742 24.96186188 8.76720703 24.96501404 7.57421875 24.96826172 C6.03652832 24.96945511 6.03652832 24.96945511 4.46777344 24.97067261 C2.19028121 24.83727726 2.19028121 24.83727726 1.15234375 26.09765625 Z " fill="#40606E" transform="translate(179.84765625,250.90234375)"/>
<path d="M0 0 C8.72077675 7.53486681 15.46654375 16.57722359 18 28 C18 29.32 18 30.64 18 32 C15.03 32 12.06 32 9 32 C8.85304688 31.38253906 8.70609375 30.76507813 8.5546875 30.12890625 C5.49633451 18.58098719 -1.42737899 9.14357261 -11.77734375 2.93359375 C-22.34064216 -2.73502777 -35.14262307 -3.86761011 -46.75 -0.81640625 C-59.07281193 3.65489183 -67.29768503 11.26787224 -73 23 C-73.93534083 26.38965608 -73.93534083 26.38965608 -74 29 C-74.66 29 -75.32 29 -76 29 C-75.7215625 29.9590625 -75.7215625 29.9590625 -75.4375 30.9375 C-75.293125 31.618125 -75.14875 32.29875 -75 33 C-75.495 33.495 -75.495 33.495 -76 34 C-76.03846051 35.56599951 -76.01174747 37.13370292 -75.95703125 38.69921875 C-75.93576172 39.66150391 -75.91449219 40.62378906 -75.89257812 41.61523438 C-75.83969253 43.6442355 -75.77481862 45.6729638 -75.69726562 47.70117188 C-75.58712581 53.83228812 -75.93087384 57.30731423 -80 62 C-82 61 -82 61 -83.5625 57.4375 C-88.32420527 42.35473814 -86.03028685 27.82252787 -79 14 C-71.40873564 1.84310648 -59.73161129 -6.84776431 -46.0078125 -10.87890625 C-29.10387086 -14.30279245 -13.5914751 -10.53984857 0 0 Z " fill="#42616E" transform="translate(173,125)"/>
<path d="M0 0 C2.96534591 3.50449971 3.77843875 6.89251996 4.0625 11.4375 C3.37590005 14.92771643 2.7022337 17.50697825 0.6875 20.4375 C0.48125 21.0975 0.275 21.7575 0.0625 22.4375 C1.72708107 25.69815073 1.72708107 25.69815073 3.1171875 27.65625 C4.0625 29.4375 4.0625 29.4375 4.0625 33.4375 C1.17388291 34.88180855 -0.73397701 34.81438506 -3.9375 34.4375 C-7.25090912 31.7265289 -9.05547698 29.20154603 -10.9375 25.4375 C-11.9275 25.1075 -12.9175 24.7775 -13.9375 24.4375 C-13.9375 23.7775 -13.9375 23.1175 -13.9375 22.4375 C-15.5875 22.7675 -17.2375 23.0975 -18.9375 23.4375 C-18.98648438 24.14777344 -19.03546875 24.85804688 -19.0859375 25.58984375 C-19.16070312 26.50894531 -19.23546875 27.42804688 -19.3125 28.375 C-19.38210937 29.29152344 -19.45171875 30.20804688 -19.5234375 31.15234375 C-19.66007813 31.90644531 -19.79671875 32.66054687 -19.9375 33.4375 C-22.70850394 34.82300197 -24.8709706 34.6252467 -27.9375 34.4375 C-30.9375 32.4375 -30.9375 32.4375 -31.38574219 30.36547852 C-31.41829102 29.52428467 -31.45083984 28.68309082 -31.484375 27.81640625 C-31.54540405 26.41962646 -31.54540405 26.41962646 -31.60766602 24.99462891 C-31.63401123 24.00640137 -31.66035645 23.01817383 -31.6875 22 C-31.72351318 21.00403809 -31.75952637 20.00807617 -31.79663086 18.98193359 C-31.99484652 12.41234691 -31.94991753 5.94812348 -30.9375 -0.5625 C-21.41264297 -4.93104345 -9.27337432 -4.93264592 0 0 Z M-19.9375 9.4375 C-20.2675 10.0975 -20.5975 10.7575 -20.9375 11.4375 C-20.2775 11.4375 -19.6175 11.4375 -18.9375 11.4375 C-18.9375 12.0975 -18.9375 12.7575 -18.9375 13.4375 C-17.47926788 13.4645043 -16.02089325 13.48389787 -14.5625 13.5 C-13.34433594 13.51740234 -13.34433594 13.51740234 -12.1015625 13.53515625 C-9.88812858 13.58216334 -9.88812858 13.58216334 -7.9375 12.4375 C-8.43506092 9.68108584 -8.43506092 9.68108584 -9.9375 7.4375 C-15.52666763 6.70046732 -15.52666763 6.70046732 -19.9375 9.4375 Z " fill="#030303" transform="translate(237.9375,190.5625)"/>
<path d="M0 0 C6.23580786 -0.61135371 6.23580786 -0.61135371 9.5 2 C10.325 2.99 11.15 3.98 12 5 C13.1846939 6.35662227 14.37236521 7.71064838 15.5625 9.0625 C16.12066406 9.71347656 16.67882812 10.36445313 17.25390625 11.03515625 C19.08781129 13.09881226 21.04783661 15.04783661 23 17 C23.33 11.72 23.66 6.44 24 1 C31.71484375 0.90234375 31.71484375 0.90234375 34 1 C35 2 35 2 35.11352539 5.23461914 C35.11336631 6.66814126 35.10767407 8.10166912 35.09765625 9.53515625 C35.0962413 10.28840683 35.09482635 11.04165741 35.09336853 11.81773376 C35.08775376 14.2326956 35.07519883 16.64756601 35.0625 19.0625 C35.0574869 20.69596221 35.05292366 22.32942586 35.04882812 23.96289062 C35.03777954 27.97529585 35.02050506 31.98763241 35 36 C30.24872075 37.08647 27.55481947 37.04181563 23 35 C20.3543883 32.21018305 18.19412419 29.14998028 16 26 C14.67082708 24.33001351 13.33985898 22.66142513 12 21 C11.34 21.33 10.68 21.66 10 22 C10 26.29 10 30.58 10 35 C3.11764706 37.29411765 3.11764706 37.29411765 -1 36 C-2.95098085 34.04901915 -2.25415108 30.35325071 -2.31640625 27.68359375 C-2.33718735 26.95253922 -2.35796844 26.22148468 -2.37937927 25.46827698 C-2.44495024 23.12478344 -2.50379432 20.78117461 -2.5625 18.4375 C-2.60567808 16.85220145 -2.64929213 15.26691471 -2.69335938 13.68164062 C-2.8006392 9.78787963 -2.9018849 5.89400228 -3 2 C-2.01 2 -1.02 2 0 2 C0 1.34 0 0.68 0 0 Z " fill="#020303" transform="translate(416,188)"/>
<path d="M0 0 C4.54707997 3.73387423 6.21192444 8.15595484 6.82421875 13.7890625 C7.04379902 19.70083898 6.46355795 23.63020024 3.23046875 28.6171875 C-0.92665715 32.71630699 -5.35484728 33.6693431 -10.97265625 33.79199219 C-11.74867188 33.78586914 -12.5246875 33.77974609 -13.32421875 33.7734375 C-14.1234375 33.76989258 -14.92265625 33.76634766 -15.74609375 33.76269531 C-20.97609922 33.61479762 -24.85249369 32.9709813 -29.13671875 29.7578125 C-32.99832501 25.39051971 -32.84607671 20.9889764 -32.88671875 15.3984375 C-32.91958984 14.60824219 -32.95246094 13.81804687 -32.98632812 13.00390625 C-33.02442019 8.84148264 -32.77319616 6.12035678 -30.10546875 2.8203125 C-22.40382304 -4.56420662 -9.19806484 -5.55429183 0 0 Z M-21.44921875 9.2734375 C-22.32031037 11.88671235 -22.63801674 13.58054921 -22.69921875 16.2734375 C-22.725 16.9540625 -22.75078125 17.6346875 -22.77734375 18.3359375 C-22.34085386 20.91330637 -21.52683233 21.71869772 -19.44921875 23.2734375 C-15.80520211 24.4950507 -12.1449186 24.95929984 -8.52734375 23.49609375 C-6.17826398 21.83495877 -4.66251924 20.11010455 -3.9453125 17.296875 C-3.7534332 13.99159937 -4.24279054 11.63244309 -5.88671875 8.7734375 C-10.72342496 5.94219484 -16.73569131 6.19310597 -21.44921875 9.2734375 Z " fill="#020203" transform="translate(376.44921875,190.7265625)"/>
<path d="M0 0 C0.72896484 -0.020625 1.45792969 -0.04125 2.20898438 -0.0625 C7.03057699 -0.09721894 10.23840917 0.63666855 14.4375 3.25 C18.07908387 7.26829945 18.6905512 10.87127681 18.58203125 16.2578125 C18.27785899 20.45045714 17.14796777 22.53953223 14.1875 25.5 C9.07426444 28.68613673 2.26396738 28.09037076 -3.5625 28.25 C-4.5525 30.89 -5.5425 33.53 -6.5625 36.25 C-13.1875 37.5 -13.1875 37.5 -16.5625 35.25 C-16.84213793 32.70778479 -16.93491506 30.41215473 -16.890625 27.87109375 C-16.88781525 26.78019188 -16.88781525 26.78019188 -16.88494873 25.66725159 C-16.87822423 24.12976498 -16.86430171 22.59229559 -16.84375 21.05493164 C-16.81257737 18.69336166 -16.80277877 16.33245848 -16.796875 13.97070312 C-16.78770593 12.47915848 -16.77733047 10.98762065 -16.765625 9.49609375 C-16.76137512 8.78569443 -16.75712524 8.0752951 -16.75274658 7.34336853 C-16.67966113 2.36716113 -16.67966113 2.36716113 -15.5625 1.25 C-10.35844959 0.30991347 -5.26964728 0.03747305 0 0 Z M-5.6875 12.0625 C-6.88241268 14.36683236 -6.88241268 14.36683236 -5.5625 17.25 C-1.6025 17.25 2.3575 17.25 6.4375 17.25 C6.7675 15.6 7.0975 13.95 7.4375 12.25 C5.03403621 9.84653621 4.29849805 9.92916253 1 9.875 C-2.70083261 9.92974635 -2.70083261 9.92974635 -5.6875 12.0625 Z " fill="#020202" transform="translate(315.5625,187.75)"/>
<path d="M0 0 C10.16381506 9.26036484 17.38669801 27.7319298 21.8125 40.5625 C21.8125 41.5525 21.8125 42.5425 21.8125 43.5625 C19.1725 43.5625 16.5325 43.5625 13.8125 43.5625 C12.97916667 41.89583333 12.14583333 40.22916667 11.3125 38.5625 C10.49652344 36.93248047 10.49652344 36.93248047 9.6640625 35.26953125 C8.36167835 32.66546846 7.06601004 30.05816475 5.7734375 27.44921875 C5.42732422 26.75248047 5.08121094 26.05574219 4.72460938 25.33789062 C4.04977972 23.97933525 3.37651833 22.61999936 2.70507812 21.25976562 C-0.61911747 13.32992926 -0.61911747 13.32992926 -6.1875 7.5625 C-10.27935129 7.213396 -10.27935129 7.213396 -14.0625 8.5625 C-15.87406931 11.78306766 -15.61413443 14.99618153 -15.1875 18.5625 C-14.09349712 22.42939304 -12.65942448 26.13800256 -11.1875 29.875 C-10.43337094 31.82783757 -9.68318032 33.78220199 -8.9375 35.73828125 C-8.43476563 37.02085815 -8.43476563 37.02085815 -7.921875 38.3293457 C-7.1875 40.5625 -7.1875 40.5625 -7.1875 43.5625 C-9.8275 43.5625 -12.4675 43.5625 -15.1875 43.5625 C-27.96958553 18.83194322 -27.96958553 18.83194322 -25.1875 8.5625 C-22.92768763 3.94772526 -20.22214848 1.20671509 -15.875 -1.5 C-10.01014346 -2.99106522 -5.50400918 -2.48220022 0 0 Z " fill="#43616F" transform="translate(221.1875,112.4375)"/>
<path d="M0 0 C3.3 0 6.6 0 10 0 C11.20270964 2.40541929 11.20316663 4.10366591 11.31640625 6.7890625 C11.37924805 8.20058594 11.37924805 8.20058594 11.44335938 9.640625 C11.48267578 10.62546875 11.52199219 11.6103125 11.5625 12.625 C11.60568359 13.61757812 11.64886719 14.61015625 11.69335938 15.6328125 C11.79961069 18.08839838 11.90164964 20.54408703 12 23 C15.21826332 24.71504054 17.30883867 25.47322581 21 25 C23.18175404 23.36450517 23.91600315 22.45425262 24.41650391 19.74755859 C24.43632324 18.88984863 24.45614258 18.03213867 24.4765625 17.1484375 C24.52296875 15.74851563 24.52296875 15.74851563 24.5703125 14.3203125 C24.58835938 13.34835938 24.60640625 12.37640625 24.625 11.375 C24.67578406 9.44520583 24.73026684 7.5155042 24.7890625 5.5859375 C24.81540771 4.30275635 24.81540771 4.30275635 24.84228516 2.99365234 C25 1 25 1 26 0 C27.68608966 -0.07205511 29.37500659 -0.08386068 31.0625 -0.0625 C31.98160156 -0.05347656 32.90070313 -0.04445312 33.84765625 -0.03515625 C34.55792969 -0.02355469 35.26820313 -0.01195312 36 0 C38.05249183 23.68259804 38.05249183 23.68259804 33 31 C26.88802808 35.81155236 21.57541461 36.63619345 14 36 C9.0432978 35.14364442 5.36882081 34.35238557 1.72265625 30.75 C-1.42955241 25.56783498 -0.40772425 18.94866478 -0.25 13.125 C-0.23195312 11.86429688 -0.21390625 10.60359375 -0.1953125 9.3046875 C-0.14830729 6.20234386 -0.08260676 3.1015662 0 0 Z " fill="#030304" transform="translate(160,189)"/>
<path d="M0 0 C3.3 0 6.6 0 10 0 C15.859375 11.71875 15.859375 11.71875 16.92675781 13.85473633 C17.64876642 15.29793234 18.37209751 16.74046742 19.09667969 18.18237305 C19.44633789 18.87886963 19.79599609 19.57536621 20.15625 20.29296875 C20.62514648 21.22532349 20.62514648 21.22532349 21.10351562 22.17651367 C25 30.10212418 25 30.10212418 25 34 C22 36 22 36 19.0625 35.875 C16 35 16 35 14.125 33 C11.10001638 30.1529566 7.98176768 30.061376 4 30 C0.74961511 30.05392193 0.74961511 30.05392193 -2 31 C-2.45375 31.66 -2.9075 32.32 -3.375 33 C-5.33178359 35.40834904 -6.07352144 35.41003431 -9.0625 35.8125 C-13 36 -13 36 -15 35 C-14.36470877 30.96504219 -13.07369237 27.65931262 -11.34765625 23.96484375 C-10.81849609 22.82595703 -10.28933594 21.68707031 -9.74414062 20.51367188 C-8.91172852 18.7434668 -8.91172852 18.7434668 -8.0625 16.9375 C-7.23588867 15.16149414 -7.23588867 15.16149414 -6.39257812 13.34960938 C-4.30614016 8.87504921 -2.20803763 4.41607526 0 0 Z M5 15 C4.34 16.32 3.68 17.64 3 19 C3.99 19.33 4.98 19.66 6 20 C6.33 18.68 6.66 17.36 7 16 C6.34 15.67 5.68 15.34 5 15 Z " fill="#020203" transform="translate(265,189)"/>
<path d="M0 0 C0.77150391 0.08765625 1.54300781 0.1753125 2.33789062 0.265625 C8.04600087 0.98350087 8.04600087 0.98350087 10.3125 3.25 C10.58241906 5.93839385 10.39987357 8.54141936 10.3125 11.25 C6.92308517 12.37980494 5.72385843 11.99029479 2.3125 11.25 C0.44060683 11.11367165 -1.43590539 11.03101809 -3.3125 11 C-4.25351563 10.97421875 -5.19453125 10.9484375 -6.1640625 10.921875 C-8.69927067 11.05970628 -8.69927067 11.05970628 -10.5078125 12.48046875 C-12.01413906 14.73995859 -12.0263235 16.11670669 -11.9375 18.8125 C-11.92203125 19.59753906 -11.9065625 20.38257813 -11.890625 21.19140625 C-11.80508859 23.31250961 -11.80508859 23.31250961 -10.6875 25.25 C-4.68546578 26.64441199 1.33123883 26.23650699 7.37890625 25.40625 C8.33603516 25.32890625 8.33603516 25.32890625 9.3125 25.25 C11.20378342 27.14128342 10.5491852 29.82067726 10.640625 32.33984375 C10.53234375 32.97019531 10.4240625 33.60054687 10.3125 34.25 C6.1037775 37.055815 2.5744968 36.61785271 -2.375 36.625 C-3.68500977 36.66173828 -3.68500977 36.66173828 -5.02148438 36.69921875 C-11.04039313 36.72618921 -15.75847573 35.86123886 -20.6875 32.25 C-25.16669248 26.89835437 -24.78572609 19.93693017 -24.6875 13.25 C-24.23127378 9.74510916 -23.6036423 8.38550558 -21.6875 5.25 C-19.16594708 3.44188862 -16.58640496 2.32248865 -13.6875 1.25 C-12.95660156 0.87101563 -12.22570312 0.49203125 -11.47265625 0.1015625 C-7.49367129 -1.11501355 -4.07536031 -0.55305992 0 0 Z " fill="#040405" transform="translate(140.6875,187.75)"/>
<path d="M0 0 C4.78709468 -0.12358454 9.57326181 -0.21432771 14.36157227 -0.2746582 C15.9903175 -0.29980568 17.61894985 -0.33392878 19.24731445 -0.37719727 C21.58833634 -0.4378455 23.92786731 -0.46620476 26.26953125 -0.48828125 C26.99775589 -0.51408768 27.72598053 -0.5398941 28.47627258 -0.56648254 C30.53833008 -0.56762695 30.53833008 -0.56762695 34 0 C35.9987793 2.39379883 35.9987793 2.39379883 37 5 C36.72774523 7.38222923 36.06876699 8.86246601 35 11 C31.7 11 28.4 11 25 11 C24.34 18.92 23.68 26.84 23 35 C15.125 35 15.125 35 12 34 C10.66742597 17.1070615 10.66742597 17.1070615 12 10 C11.21753906 10.01160156 10.43507813 10.02320313 9.62890625 10.03515625 C8.61699219 10.04417969 7.60507812 10.05320313 6.5625 10.0625 C5.55316406 10.07410156 4.54382813 10.08570313 3.50390625 10.09765625 C1 10 1 10 0 9 C-0.07179964 7.48071962 -0.08392007 5.95832518 -0.0625 4.4375 C-0.05347656 3.61121094 -0.04445313 2.78492188 -0.03515625 1.93359375 C-0.02355469 1.29550781 -0.01195312 0.65742188 0 0 Z " fill="#030303" transform="translate(460,189)"/>
<path d="M0 0 C0.77214844 -0.01611328 1.54429687 -0.03222656 2.33984375 -0.04882812 C7.99061195 -0.0537248 7.99061195 -0.0537248 10.2121582 1.54345703 C11.85298316 3.79737507 11.92341911 5.20786014 12.01171875 7.98046875 C12.04716797 8.87314453 12.08261719 9.76582031 12.11914062 10.68554688 C12.15297852 12.07870117 12.15297852 12.07870117 12.1875 13.5 C12.22166016 14.44037109 12.25582031 15.38074219 12.29101562 16.34960938 C12.37347151 18.6701536 12.43841303 20.99130817 12.5 23.3125 C9.53 23.3125 6.56 23.3125 3.5 23.3125 C3.17 18.6925 2.84 14.0725 2.5 9.3125 C0.025 8.8175 0.025 8.8175 -2.5 8.3125 C-2.5 12.9325 -2.5 17.5525 -2.5 22.3125 C-6.10508221 24.11504111 -8.61216797 24.81923799 -12.5 25.5625 C-19.45419558 27.08249971 -25.30753511 29.86480333 -31.5 33.3125 C-33.37264676 31.43985324 -32.73607378 28.81490053 -32.828125 26.3203125 C-32.39922821 23.69587259 -31.55980228 22.95763118 -29.5 21.3125 C-27.50708008 20.97192383 -27.50708008 20.97192383 -25.26953125 21.01953125 C-24.46708984 21.02919922 -23.66464844 21.03886719 -22.83789062 21.04882812 C-21.58782227 21.0865332 -21.58782227 21.0865332 -20.3125 21.125 C-19.0450293 21.14530273 -19.0450293 21.14530273 -17.75195312 21.16601562 C-15.66769616 21.20134201 -13.58376723 21.25514861 -11.5 21.3125 C-11.51571045 20.74740723 -11.5314209 20.18231445 -11.54760742 19.60009766 C-11.60987045 17.04599977 -11.64896136 14.49206129 -11.6875 11.9375 C-11.71263672 11.04804688 -11.73777344 10.15859375 -11.76367188 9.2421875 C-11.77333984 8.39140625 -11.78300781 7.540625 -11.79296875 6.6640625 C-11.8086792 5.87854004 -11.82438965 5.09301758 -11.84057617 4.28369141 C-11.72818604 3.63319824 -11.6157959 2.98270508 -11.5 2.3125 C-7.65681569 -0.24962287 -4.45306045 -0.01858539 0 0 Z " fill="#3F5D6A" transform="translate(139.5,132.6875)"/>
<path d="M0 0 C0.72896484 -0.020625 1.45792969 -0.04125 2.20898438 -0.0625 C7.00956178 -0.09706761 10.28324062 0.58536686 14.4375 3.25 C15.3125 5.4375 15.3125 5.4375 15.4375 7.25 C14.4475 6.92 13.4575 6.59 12.4375 6.25 C12.4375 6.91 12.4375 7.57 12.4375 8.25 C11.34765625 9.87109375 11.34765625 9.87109375 9.4375 11.25 C6.37109375 11.47265625 6.37109375 11.47265625 2.875 11.3125 C-0.53334395 11.12101492 -0.53334395 11.12101492 -3.5625 11.25 C-5.62273243 13.08347504 -5.62273243 13.08347504 -6.5 15.25 C-7.5625 17.25 -7.5625 17.25 -10.5625 19.25 C-11.5525 19.25 -12.5425 19.25 -13.5625 19.25 C-13.75908808 20.66543415 -13.94437546 22.08244031 -14.125 23.5 C-14.22941406 24.28890625 -14.33382813 25.0778125 -14.44140625 25.890625 C-14.67791837 28.23056802 -14.67791837 28.23056802 -14.02734375 30.359375 C-13.5625 32.25 -13.5625 32.25 -14.5625 35.25 C-15.2225 35.25 -15.8825 35.25 -16.5625 35.25 C-16.58715288 30.56860746 -16.60533739 25.88725241 -16.61743164 21.20581055 C-16.62247157 19.61205386 -16.6293035 18.01830181 -16.63793945 16.42456055 C-16.65001999 14.13849747 -16.65573155 11.85249533 -16.66015625 9.56640625 C-16.66531754 8.84973282 -16.67047882 8.13305939 -16.67579651 7.39466858 C-16.67599263 5.67936328 -16.62442007 3.96418734 -16.5625 2.25 C-13.27892797 -1.03357203 -4.56131427 0.03243601 0 0 Z " fill="#060606" transform="translate(315.5625,187.75)"/>
<path d="M0 0 C1.23556641 0.01740234 1.23556641 0.01740234 2.49609375 0.03515625 C3.32238281 0.04417969 4.14867187 0.05320313 5 0.0625 C5.63808594 0.07410156 6.27617187 0.08570313 6.93359375 0.09765625 C8.91185984 4.20595378 9.12162463 7.36290822 8.9453125 11.89453125 C8.89826172 13.18230469 8.85121094 14.47007812 8.80273438 15.796875 C8.75789917 16.79340088 8.75789917 16.79340088 8.7121582 17.81005859 C8.62077215 19.85485215 8.54638794 21.89974575 8.47460938 23.9453125 C8.07728079 33.95396921 8.07728079 33.95396921 6.93359375 35.09765625 C5.43621251 35.19556195 3.93416483 35.22740489 2.43359375 35.22265625 C1.61890625 35.22523438 0.80421875 35.2278125 -0.03515625 35.23046875 C-2.06640625 35.09765625 -2.06640625 35.09765625 -3.06640625 34.09765625 C-3.4552822 30.65443012 -3.54201241 27.1836135 -3.69140625 23.72265625 C-3.73571777 22.72145752 -3.7800293 21.72025879 -3.82568359 20.6887207 C-4.33946732 7.36394573 -4.33946732 7.36394573 -3.06640625 1.09765625 C-2.06640625 0.09765625 -2.06640625 0.09765625 0 0 Z " fill="#060707" transform="translate(396.06640625,188.90234375)"/>
<path d="M0 0 C0.66 0.33 1.32 0.66 2 1 C1.67 3.64 1.34 6.28 1 9 C3.2236068 7.0745356 3.2236068 7.0745356 4 4 C4.33 4 4.66 4 5 4 C5.12375 5.134375 5.2475 6.26875 5.375 7.4375 C5.684375 9.2009375 5.684375 9.2009375 6 11 C6.66 11.33 7.32 11.66 8 12 C8.07425143 16.76884567 8.12864936 21.5373536 8.16479492 26.30664062 C8.17986565 27.92844506 8.20032593 29.55020884 8.22631836 31.171875 C8.26277829 33.50531046 8.27974314 35.83820631 8.29296875 38.171875 C8.30845261 38.89493835 8.32393646 39.61800171 8.33988953 40.36297607 C8.34127964 44.5371452 7.96853351 46.97325996 5 50 C0.125 49.125 0.125 49.125 -1 48 C-1.09803393 46.60384706 -1.12798173 45.20281248 -1.12939453 43.80322266 C-1.13254669 42.91204742 -1.13569885 42.02087219 -1.13894653 41.10269165 C-1.1369223 40.13294403 -1.13489807 39.16319641 -1.1328125 38.1640625 C-1.13376923 37.17377045 -1.13472595 36.18347839 -1.13571167 35.16317749 C-1.13639373 33.06321143 -1.13453769 30.96324328 -1.13037109 28.86328125 C-1.12503447 25.64578508 -1.1303094 22.42842923 -1.13671875 19.2109375 C-1.13605775 17.17447886 -1.13477614 15.1380203 -1.1328125 13.1015625 C-1.13483673 12.13586334 -1.13686096 11.17016418 -1.13894653 10.17520142 C-1.13579437 9.27772186 -1.13264221 8.38024231 -1.12939453 7.45556641 C-1.12820114 6.27095322 -1.12820114 6.27095322 -1.12698364 5.06240845 C-1 3 -1 3 0 0 Z " fill="#3B5D6A" transform="translate(57,176)"/>
<path d="M0 0 C1.32 0.66 2.64 1.32 4 2 C4 3.65 4 5.3 4 7 C5.32 7.66 6.64 8.32 8 9 C7.67 10.32 7.34 11.64 7 13 C8.32 12.67 9.64 12.34 11 12 C11.33 13.32 11.66 14.64 12 16 C11.38511719 15.9278125 10.77023438 15.855625 10.13671875 15.78125 C9.32847656 15.6884375 8.52023438 15.595625 7.6875 15.5 C6.88699219 15.4071875 6.08648437 15.314375 5.26171875 15.21875 C2.88103445 14.95186537 2.88103445 14.95186537 0 15 C-1.04449911 18.13349732 -0.93423645 18.98968256 0 22 C0.268125 21.360625 0.53625 20.72125 0.8125 20.0625 C2 18 2 18 5 17 C6.91791768 16.93931217 8.83806741 16.94145545 10.7565918 16.97827148 C11.93758957 16.99836777 13.11858734 17.01846405 14.33537292 17.03916931 C16.24797661 17.07972191 16.24797661 17.07972191 18.19921875 17.12109375 C20.15720146 17.15651024 20.15720146 17.15651024 22.15473938 17.19264221 C25.62197729 17.25541775 29.08906188 17.32450272 32.55615234 17.39489746 C36.09530669 17.46564001 39.63456958 17.53042151 43.17382812 17.59570312 C50.11600339 17.7246312 57.05803491 17.86022441 64 18 C64 18.66 64 19.32 64 20 C44.2 20.33 24.4 20.66 4 21 C3.45384301 28.24696416 3.45384301 28.24696416 5 35 C3.52168779 35.19412181 2.04230684 35.38012131 0.5625 35.5625 C-0.67306641 35.71912109 -0.67306641 35.71912109 -1.93359375 35.87890625 C-2.95646484 35.93884766 -2.95646484 35.93884766 -4 36 C-6.24258935 33.75741065 -5.27942779 28.69707074 -5.3125 25.6875 C-5.34150391 24.81931641 -5.37050781 23.95113281 -5.40039062 23.05664062 C-5.46413983 16.66700889 -5.46413983 16.66700889 -3.23046875 13.45703125 C-1 12 -1 12 3 11 C2.01 7.37 1.02 3.74 0 0 Z " fill="#496574" transform="translate(178,256)"/>
<path d="M0 0 C0.33 0 0.66 0 1 0 C1.02716824 2.54173977 1.04691969 5.08318415 1.0625 7.625 C1.07087891 8.33785156 1.07925781 9.05070313 1.08789062 9.78515625 C1.10710296 13.97344438 0.8267327 17.8728462 0 22 C0.99 21.01 1.98 20.02 3 19 C3.99 19.33 4.98 19.66 6 20 C5.773125 21.093125 5.54625 22.18625 5.3125 23.3125 C4.59853617 26.90531273 4.59853617 26.90531273 6.4375 28.9375 C7.2109375 29.4634375 7.2109375 29.4634375 8 30 C6.79618552 32.49361571 5.54571278 34.68143083 4 37 C1.4057312 37.36076355 1.4057312 37.36076355 -1.91845703 37.34057617 C-3.15959259 37.34034958 -4.40072815 37.34012299 -5.67947388 37.33988953 C-7.03892372 37.32456848 -8.39836991 37.30892047 -9.7578125 37.29296875 C-11.1450047 37.28737427 -12.53220283 37.28310347 -13.91940308 37.28010559 C-17.57249281 37.26864497 -21.22522534 37.23916786 -24.87817383 37.20599365 C-28.60493131 37.17531867 -32.33174645 37.16160579 -36.05859375 37.14648438 C-43.37255877 37.11429886 -50.68622936 37.06308839 -58 37 C-57.67 36.34 -57.34 35.68 -57 35 C-38.52 34.67 -20.04 34.34 -1 34 C-0.505 33.01 -0.505 33.01 0 32 C-0.99 32 -1.98 32 -3 32 C-3 31.01 -3 30.02 -3 29 C-3.66 28.67 -4.32 28.34 -5 28 C-3.49241324 18.63522577 -1.77356753 9.31714145 0 0 Z M2 27 C3 29 3 29 3 29 Z " fill="#4A6572" transform="translate(95,239)"/>
<path d="M0 0 C-0.40813096 2.36715956 -0.67353471 3.68772885 -2.4375 5.375 C-4.60132694 7.62538002 -5.14515602 10.04092468 -6 13 C-6.33 13 -6.66 13 -7 13 C-7.66 11.02 -8.32 9.04 -9 7 C-11.475 6.505 -11.475 6.505 -14 6 C-13.67 4.02 -13.34 2.04 -13 0 C-11 1.375 -11 1.375 -9 3 C-9 3.66 -9 4.32 -9 5 C-7.35 4.01 -5.7 3.02 -4 2 C-7.11821357 0.1840566 -9.4650331 -0.29622187 -13.0625 -0.3125 C-13.91972656 -0.32925781 -14.77695313 -0.34601563 -15.66015625 -0.36328125 C-18.42104781 0.06537136 -19.27778897 0.85994105 -21 3 C-21.66 2.34 -22.32 1.68 -23 1 C-25.97 0.505 -25.97 0.505 -29 0 C-29 10.23 -29 20.46 -29 31 C-28.01 31.33 -27.02 31.66 -26 32 C-27.65 32 -29.3 32 -31 32 C-32.40027356 8.00483611 -32.40027356 8.00483611 -31 -1 C-21.75052569 -5.2422401 -8.66095417 -5.77396945 0 0 Z " fill="#0C0D0E" transform="translate(238,191)"/>
<path d="M0 0 C0.33 1.32 0.66 2.64 1 4 C0.34 4 -0.32 4 -1 4 C-0.7215625 4.9590625 -0.7215625 4.9590625 -0.4375 5.9375 C-0.293125 6.618125 -0.14875 7.29875 0 8 C-0.33 8.33 -0.66 8.66 -1 9 C-1.03846051 10.56599951 -1.01174747 12.13370292 -0.95703125 13.69921875 C-0.93576172 14.66150391 -0.91449219 15.62378906 -0.89257812 16.61523438 C-0.83969253 18.6442355 -0.77481862 20.6729638 -0.69726562 22.70117188 C-0.58712581 28.83228812 -0.93087384 32.30731423 -5 37 C-7 36 -7 36 -8.5625 32.4375 C-10.7863062 25.51899183 -10.74359601 18.20583621 -11 11 C-10.67 11 -10.34 11 -10 11 C-9.67 12.98 -9.34 14.96 -9 17 C-8.67 15.02 -8.34 13.04 -8 11 C-6.35 10.67 -4.7 10.34 -3 10 C-3.0928125 8.63875 -3.0928125 8.63875 -3.1875 7.25 C-2.98327924 3.71017358 -2.35448165 2.55068845 0 0 Z " fill="#3E5B68" transform="translate(98,150)"/>
<path d="M0 0 C1.0391103 3.11733089 1.05488944 5.03668372 0.9140625 8.2890625 C0.87023437 9.31257812 0.82640625 10.33609375 0.78125 11.390625 C0.7296875 12.45796875 0.678125 13.5253125 0.625 14.625 C0.58117187 15.70007813 0.53734375 16.77515625 0.4921875 17.8828125 C0.12909226 25.87090774 0.12909226 25.87090774 -1 27 C-2.51928038 27.07179964 -4.04167482 27.08392007 -5.5625 27.0625 C-6.38878906 27.05347656 -7.21507812 27.04445312 -8.06640625 27.03515625 C-9.02353516 27.01775391 -9.02353516 27.01775391 -10 27 C-10.33 26.34 -10.66 25.68 -11 25 C-10.34 25 -9.68 25 -9 25 C-9 20.05 -9 15.1 -9 10 C-7.02 9.01 -5.04 8.02 -3 7 C-1.69150637 5.25298762 -1.69150637 5.25298762 -1.125 3.3125 C-0.75375 2.219375 -0.3825 1.12625 0 0 Z " fill="#010101" transform="translate(404,197)"/>
<path d="M0 0 C0.66 0 1.32 0 2 0 C4.64954348 6.12706929 5.44087926 13.11642842 3.08984375 19.453125 C1.09268392 23.02361009 -0.22043265 24.68180925 -4.0625 26.25 C-7 26 -7 26 -9.375 24.0625 C-10.179375 23.0415625 -10.179375 23.0415625 -11 22 C-10 19 -10 19 -8 16 C-7.34 16 -6.68 16 -6 16 C-5.67 15.34 -5.34 14.68 -5 14 C-4.34 15.65 -3.68 17.3 -3 19 C-2.01 19 -1.02 19 0 19 C1.27603607 15.17189179 0.86283987 11.76524893 0.5625 7.8125 C0.51029297 7.06291016 0.45808594 6.31332031 0.40429688 5.54101562 C0.27486216 3.69362918 0.13813482 1.84675629 0 0 Z " fill="#080909" transform="translate(379,196)"/>
<path d="M0 0 C1.80152779 0.03025772 1.80152779 0.03025772 3.63945007 0.06112671 C5.58486443 0.10942123 5.58486443 0.10942123 7.56958008 0.15869141 C8.91049005 0.18486408 10.25141799 0.21013066 11.59236145 0.23452759 C15.11891444 0.30112463 18.64508884 0.38002852 22.17132568 0.46148682 C25.77072639 0.5424599 29.37034894 0.61180694 32.9699707 0.68212891 C40.03077824 0.82178441 47.09125142 0.97444088 54.15161133 1.13525391 C54.15161133 1.79525391 54.15161133 2.45525391 54.15161133 3.13525391 C46.23295172 3.31211513 38.31417156 3.47807712 30.39499855 3.63002968 C26.71802792 3.70092783 23.04121481 3.77561462 19.36450195 3.85888672 C15.81795992 3.93907244 12.27134823 4.00940165 8.72446823 4.07282639 C7.3695795 4.09880106 6.0147547 4.12836003 4.66002274 4.1615181 C2.76630966 4.20726285 0.87227858 4.23922037 -1.02172852 4.27050781 C-2.10094574 4.29271393 -3.18016296 4.31492004 -4.29208374 4.33779907 C-6.84838867 4.13525391 -6.84838867 4.13525391 -8.84838867 2.13525391 C-5.35798613 -0.19168112 -4.10923958 -0.08614758 0 0 Z " fill="#58707B" transform="translate(187.848388671875,272.86474609375)"/>
<path d="M0 0 C-0.33 0.66 -0.66 1.32 -1 2 C-21.46 2 -41.92 2 -63 2 C-62.67 1.34 -62.34 0.68 -62 0 C-54.35928097 -0.15384492 -46.71846997 -0.30202597 -39.07750225 -0.4429636 C-35.52955293 -0.50858382 -31.98166325 -0.5761594 -28.43383789 -0.64819336 C-24.3557274 -0.73090855 -20.27750095 -0.80513725 -16.19921875 -0.87890625 C-14.92414963 -0.90594131 -13.64908051 -0.93297638 -12.33537292 -0.96083069 C-11.15437515 -0.98092697 -9.97337738 -1.00102325 -8.7565918 -1.02172852 C-7.71512497 -1.04171402 -6.67365814 -1.06169952 -5.60063171 -1.08229065 C-3 -1 -3 -1 0 0 Z " fill="#556E79" transform="translate(100,274)"/>
<path d="M0 0 C2.90433643 2.90433643 2.46438695 6.03288347 2.625 9.9375 C2.66294678 10.69861084 2.70089355 11.45972168 2.73999023 12.24389648 C3.01578184 18.16309723 3.1151761 24.07482928 3 30 C2.34 29.67 1.68 29.34 1 29 C0.68758545 26.28553021 0.48663408 23.66090639 0.375 20.9375 C0.33632812 20.17888672 0.29765625 19.42027344 0.2578125 18.63867188 C0.16326438 16.75952805 0.08053244 14.87979664 0 13 C-0.99 13 -1.98 13 -3 13 C-3.04898438 14.20398438 -3.09796875 15.40796875 -3.1484375 16.6484375 C-3.22346343 18.22398198 -3.29901133 19.79950166 -3.375 21.375 C-3.4059375 22.1690625 -3.436875 22.963125 -3.46875 23.78125 C-3.7734375 29.7734375 -3.7734375 29.7734375 -6 32 C-6 22.76 -6 13.52 -6 4 C-5.01 4.99 -4.02 5.98 -3 7 C-2.01 6.01 -1.02 5.02 0 4 C-0.33 3.34 -0.66 2.68 -1 2 C-0.67 1.34 -0.34 0.68 0 0 Z " fill="#3C5464" transform="translate(85,176)"/>
<path d="M0 0 C0.66 0.33 1.32 0.66 2 1 C2 3.97 2 6.94 2 10 C-2.24947971 11.00427258 -6.43832977 11.24506109 -10.78515625 11.38671875 C-11.52326035 11.41224319 -12.26136444 11.43776764 -13.02183533 11.46406555 C-14.57576093 11.51586889 -16.12976656 11.56531899 -17.68383789 11.61254883 C-20.05860609 11.6873773 -22.43244876 11.77802392 -24.80664062 11.86914062 C-26.3202816 11.91764096 -27.83395311 11.9651991 -29.34765625 12.01171875 C-30.05503433 12.04077805 -30.76241241 12.06983734 -31.4912262 12.09977722 C-35.19319571 12.19420734 -37.85994944 12.06196485 -41 10 C-40.34 10 -39.68 10 -39 10 C-39 9.34 -39 8.68 -39 8 C-26.46 8 -13.92 8 -1 8 C-0.67 5.36 -0.34 2.72 0 0 Z " fill="#4E6974" transform="translate(232,259)"/>
<path d="M0 0 C13.86 0 27.72 0 42 0 C42 0.66 42 1.32 42 2 C37.98424532 4.78818986 33.73975262 4.15686233 29.078125 3.9765625 C28.21813904 3.95153656 27.35815308 3.92651062 26.47210693 3.90072632 C23.73099378 3.81869155 20.990619 3.72203857 18.25 3.625 C16.38935287 3.56674352 14.52867563 3.50944061 12.66796875 3.453125 C8.11155609 3.31313739 3.55575065 3.16003956 -1 3 C-0.67 2.01 -0.34 1.02 0 0 Z " fill="#4D6973" transform="translate(47,267)"/>
<path d="M0 0 C2.33944736 0.28730055 4.6739143 0.61936779 7 1 C7 1.33 7 1.66 7 2 C5.35 2 3.7 2 2 2 C1.97088679 5.0833134 1.95316318 8.16659125 1.9375 11.25 C1.92912109 12.12269531 1.92074219 12.99539062 1.91210938 13.89453125 C1.90888672 14.73886719 1.90566406 15.58320313 1.90234375 16.453125 C1.89448853 17.61569824 1.89448853 17.61569824 1.88647461 18.80175781 C1.99963002 20.99283598 2.39447552 22.89637861 3 25 C2.01 25.33 1.02 25.66 0 26 C-1.71567792 24.28432208 -1.13015825 22.02627265 -1.1328125 19.6875 C-1.13410156 18.61242187 -1.13539063 17.53734375 -1.13671875 16.4296875 C-1.13091797 14.73199219 -1.13091797 14.73199219 -1.125 13 C-1.12886719 11.86820313 -1.13273438 10.73640625 -1.13671875 9.5703125 C-1.13542969 8.49523437 -1.13414062 7.42015625 -1.1328125 6.3125 C-1.13168457 5.31863281 -1.13055664 4.32476562 -1.12939453 3.30078125 C-1 1 -1 1 0 0 Z " fill="#090A0A" transform="translate(186,189)"/>
<path d="M0 0 C5.39449293 -0.27429625 8.51925805 -0.36055646 13 3 C12.67 3.99 12.34 4.98 12 6 C11.34 5.67 10.68 5.34 10 5 C10 5.66 10 6.32 10 7 C8.85546875 8.64453125 8.85546875 8.64453125 7 10 C4.30078125 10.07421875 4.30078125 10.07421875 1.3125 9.6875 C-0.17830078 9.50767578 -0.17830078 9.50767578 -1.69921875 9.32421875 C-2.45847656 9.21722656 -3.21773438 9.11023438 -4 9 C-3.67 8.34 -3.34 7.68 -3 7 C-2.34 7 -1.68 7 -1 7 C-1 6.01 -1 5.02 -1 4 C0.98 3.67 2.96 3.34 5 3 C5 3.66 5 4.32 5 5 C4.67 5.33 4.34 5.66 4 6 C5.32 5.34 6.64 4.68 8 4 C8 3.67 8 3.34 8 3 C5.36 2.34 2.72 1.68 0 1 C0 0.67 0 0.34 0 0 Z " fill="#0A0B0B" transform="translate(318,189)"/>
<path d="M0 0 C0.99 0 1.98 0 3 0 C3 0.66 3 1.32 3 2 C5.64 2 8.28 2 11 2 C7.52909418 4.31393721 6.32329883 4.22224518 2.2434082 4.13525391 C1.06241043 4.11508209 -0.11858734 4.09491028 -1.33537292 4.0741272 C-2.61044205 4.04193085 -3.88551117 4.0097345 -5.19921875 3.9765625 C-6.50454056 3.95153656 -7.80986237 3.92651062 -9.15473938 3.90072632 C-12.62211269 3.83413337 -16.08910073 3.75522864 -19.55615234 3.67376709 C-23.09522737 3.59278997 -26.63452815 3.52344545 -30.17382812 3.453125 C-37.11615096 3.3134749 -44.05813617 3.16081833 -51 3 C-51 2.67 -51 2.34 -51 2 C-34.17 2 -17.34 2 0 2 C0 1.34 0 0.68 0 0 Z " fill="#445A64" transform="translate(234,294)"/>
<path d="M0 0 C0.33 1.32 0.66 2.64 1 4 C1.99 4 2.98 4 4 4 C4.66 2.68 5.32 1.36 6 0 C6.66 0 7.32 0 8 0 C7.01 3.63 6.02 7.26 5 11 C4.01 11 3.02 11 2 11 C1.67 10.34 1.34 9.68 1 9 C0.67 9.66 0.34 10.32 0 11 C-0.99 11 -1.98 11 -3 11 C-3.33 11.66 -3.66 12.32 -4 13 C-4.34837335 8.12277312 -3.45094389 5.21562348 -1 1 C-0.67 0.67 -0.34 0.34 0 0 Z " fill="#476473" transform="translate(72,138)"/>
<path d="M0 0 C1.9453125 -0.29296875 1.9453125 -0.29296875 4.125 -0.1875 C5.40375 -0.125625 6.6825 -0.06375 8 0 C8 2.64 8 5.28 8 8 C4.1851221 9.27162597 2.6068725 8.64661571 -1 7 C-2 5.0625 -2 5.0625 -2 3 C-1.34 2.01 -0.68 1.02 0 0 Z " fill="#020303" transform="translate(143,191)"/>
<path d="M0 0 C1.32 0 2.64 0 4 0 C6.5654594 2.5654594 6.54046087 4.47686668 7 8 C3 8 3 8 0 7 C0 8.32 0 9.64 0 11 C-0.99 11.33 -1.98 11.66 -3 12 C-2.14285714 3.42857143 -2.14285714 3.42857143 0 0 Z " fill="#426370" transform="translate(65,155)"/>
<path d="M0 0 C2.57911495 1.83033964 3.14319213 3.34218814 3.9375 6.375 C3.5625 8.6875 3.5625 8.6875 2.9375 10.375 C1.6175 10.705 0.2975 11.035 -1.0625 11.375 C-1.3925 10.385 -1.7225 9.395 -2.0625 8.375 C-3.0525 8.375 -4.0425 8.375 -5.0625 8.375 C-6.1875 2.625 -6.1875 2.625 -5.0625 0.375 C-2.0625 -0.625 -2.0625 -0.625 0 0 Z M-4.0625 1.375 C-3.7325 3.355 -3.4025 5.335 -3.0625 7.375 C-2.0725 7.045 -1.0825 6.715 -0.0625 6.375 C-0.0625 5.385 -0.0625 4.395 -0.0625 3.375 C-1.3825 2.715 -2.7025 2.055 -4.0625 1.375 Z " fill="#090A0B" transform="translate(283.0625,206.625)"/>
<path d="M0 0 C0.99 0 1.98 0 3 0 C3.02913072 4.37498593 3.04684286 8.74994674 3.0625 13.125 C3.07087891 14.3625 3.07925781 15.6 3.08789062 16.875 C3.09111328 18.07382813 3.09433594 19.27265625 3.09765625 20.5078125 C3.10289307 21.60754395 3.10812988 22.70727539 3.11352539 23.84033203 C3.0008558 26.97618105 2.58626376 29.92059383 2 33 C1.67 33 1.34 33 1 33 C0.67 22.11 0.34 11.22 0 0 Z " fill="#010202" transform="translate(413,190)"/>
<path d="M0 0 C3.3 0 6.6 0 10 0 C10 7.59 10 15.18 10 23 C8 21 8 21 7.77294922 19.02880859 C7.78865967 17.8505249 7.78865967 17.8505249 7.8046875 16.6484375 C7.81435547 15.37226563 7.81435547 15.37226563 7.82421875 14.0703125 C7.84097656 13.18085938 7.85773438 12.29140625 7.875 11.375 C7.88402344 10.4778125 7.89304688 9.580625 7.90234375 8.65625 C7.9259503 6.43723414 7.9588769 4.21874923 8 2 C5.36 2.33 2.72 2.66 0 3 C0 2.01 0 1.02 0 0 Z " fill="#0A0C0C" transform="translate(160,189)"/>
<path d="M0 0 C0.99 0 1.98 0 3 0 C3 1.32 3 2.64 3 4 C3.99 4 4.98 4 6 4 C6.66 5.98 7.32 7.96 8 10 C7.34 10 6.68 10 6 10 C5.67 9.34 5.34 8.68 5 8 C4.690625 8.78375 4.38125 9.5675 4.0625 10.375 C3 13 3 13 2 15 C1.34 15 0.68 15 0 15 C0.185625 14.43539062 0.37125 13.87078125 0.5625 13.2890625 C1.07189706 10.62382433 0.69746958 8.98179257 0 6.375 C-1.10629067 2.21258134 -1.10629067 2.21258134 0 0 Z " fill="#3D5B69" transform="translate(200,127)"/>
<path d="M0 0 C1.16337891 0.0515625 2.32675781 0.103125 3.52539062 0.15625 C4.74033203 0.22070312 5.95527344 0.28515625 7.20703125 0.3515625 C8.43357422 0.40828125 9.66011719 0.465 10.92382812 0.5234375 C13.95631013 0.66503199 16.98797931 0.81645758 20.01953125 0.9765625 C20.01953125 1.3065625 20.01953125 1.6365625 20.01953125 1.9765625 C15.75015469 2.36958934 11.47900084 2.73789509 7.20703125 3.1015625 C5.99208984 3.21371094 4.77714844 3.32585937 3.52539062 3.44140625 C2.36201172 3.53808594 1.19863281 3.63476562 0 3.734375 C-1.61032104 3.87576904 -1.61032104 3.87576904 -3.25317383 4.02001953 C-5.98046875 3.9765625 -5.98046875 3.9765625 -8.98046875 1.9765625 C-5.43280209 -0.38854861 -4.17319055 -0.20357027 0 0 Z " fill="#5D7583" transform="translate(187.98046875,273.0234375)"/>
<path d="M0 0 C0.66 0 1.32 0 2 0 C3.25664978 2.90600261 4 4.79604584 4 8 C1.36 8 -1.28 8 -4 8 C-4.33 7.01 -4.66 6.02 -5 5 C-4.34 5 -3.68 5 -3 5 C-2.67 4.01 -2.34 3.02 -2 2 C-1.34 2 -0.68 2 0 2 C0 1.34 0 0.68 0 0 Z " fill="#3E5D69" transform="translate(210,148)"/>
<path d="M0 0 C1.51400391 0.01740234 1.51400391 0.01740234 3.05859375 0.03515625 C4.07050781 0.04417969 5.08242188 0.05320313 6.125 0.0625 C7.29869141 0.07990234 7.29869141 0.07990234 8.49609375 0.09765625 C8.16609375 1.41765625 7.83609375 2.73765625 7.49609375 4.09765625 C3.04109375 3.10765625 3.04109375 3.10765625 -1.50390625 2.09765625 C-1.50390625 4.73765625 -1.50390625 7.37765625 -1.50390625 10.09765625 C-2.49390625 10.59265625 -2.49390625 10.59265625 -3.50390625 11.09765625 C-3.53078776 9.45191059 -3.55024748 7.80604212 -3.56640625 6.16015625 C-3.57800781 5.24363281 -3.58960938 4.32710937 -3.6015625 3.3828125 C-3.46380636 0.15931892 -3.23579438 0.12620103 0 0 Z " fill="#0E1012" transform="translate(302.50390625,188.90234375)"/>
<path d="M0 0 C3.3 0.33 6.6 0.66 10 1 C10.33 1.99 10.66 2.98 11 4 C8.69 4 6.38 4 4 4 C3.67 5.98 3.34 7.96 3 10 C1.68 9.34 0.36 8.68 -1 8 C-0.4740625 7.13375 -0.4740625 7.13375 0.0625 6.25 C1.36283174 3.75979645 1.36283174 3.75979645 0 0 Z " fill="#0C0F0F" transform="translate(139,188)"/>
<path d="M0 0 C1.65 0 3.3 0 5 0 C5 1.98 5 3.96 5 6 C5.66 6.33 6.32 6.66 7 7 C5.02 7.66 3.04 8.32 1 9 C1 8.01 1 7.02 1 6 C0.01 5.67 -0.98 5.34 -2 5 C-1.34 5 -0.68 5 0 5 C0 3.35 0 1.7 0 0 Z " fill="#426474" transform="translate(29,182)"/>
<path d="M0 0 C1.65 0.33 3.3 0.66 5 1 C5.33 3.31 5.66 5.62 6 8 C5.38125 7.505 4.7625 7.01 4.125 6.5 C2.16119096 4.80777227 2.16119096 4.80777227 0 5 C0.33 6.65 0.66 8.3 1 10 C0.67 9.34 0.34 8.68 0 8 C-0.66 8 -1.32 8 -2 8 C-2.33 6.35 -2.66 4.7 -3 3 C-2.34 3 -1.68 3 -1 3 C-0.67 2.01 -0.34 1.02 0 0 Z " fill="#476571" transform="translate(181,139)"/>
<path d="M0 0 C1 2 1 2 0.875 5.0625 C1.0257635 9.81155024 2.32257119 13.59674937 4 18 C3.01 18 2.02 18 1 18 C-1.5915262 12.06108578 -2.40368295 7.45892714 -2 1 C-1.34 0.67 -0.68 0.34 0 0 Z " fill="#506775" transform="translate(198,121)"/>
<path d="M0 0 C3 3.75 3 3.75 3 6 C3.66 6 4.32 6 5 6 C4.67 7.32 4.34 8.64 4 10 C2.68 10 1.36 10 0 10 C-0.12375 8.865625 -0.2475 7.73125 -0.375 6.5625 C-0.58125 5.386875 -0.7875 4.21125 -1 3 C-1.66 2.67 -2.32 2.34 -3 2 C-2.01 1.34 -1.02 0.68 0 0 Z " fill="#3C5D6F" transform="translate(229,129)"/>
<path d="M0 0 C1.485 0.99 1.485 0.99 3 2 C3.29296875 4.49609375 3.29296875 4.49609375 3.1875 7.4375 C3.16042969 8.40558594 3.13335937 9.37367188 3.10546875 10.37109375 C3.07066406 11.23863281 3.03585938 12.10617187 3 13 C3 13.99 3 14.98 3 16 C2.01 16 1.02 16 0 16 C0 10.72 0 5.44 0 0 Z " fill="#4A6776" transform="translate(98,275)"/>
<path d="M0 0 C0.66 0.33 1.32 0.66 2 1 C1.34 2.65 0.68 4.3 0 6 C0.99 6.33 1.98 6.66 3 7 C2.67 7.99 2.34 8.98 2 10 C2.66 10 3.32 10 4 10 C4 10.66 4 11.32 4 12 C1.5625 11.625 1.5625 11.625 -1 11 C-1.33 10.34 -1.66 9.68 -2 9 C-1.67 8.01 -1.34 7.02 -1 6 C-1.66 5.67 -2.32 5.34 -3 5 C-2.01 3.35 -1.02 1.7 0 0 Z " fill="#3C5763" transform="translate(90,261)"/>
<path d="M0 0 C2 1 2 1 2.8515625 3.50390625 C3.10679687 4.51324219 3.36203125 5.52257812 3.625 6.5625 C3.88539063 7.57441406 4.14578125 8.58632812 4.4140625 9.62890625 C4.60742188 10.41136719 4.80078125 11.19382813 5 12 C4.01 12 3.02 12 2 12 C1.4654744 10.75579353 0.94791389 9.50429064 0.4375 8.25 C0.14746094 7.55390625 -0.14257812 6.8578125 -0.44140625 6.140625 C-1.07831803 3.69987216 -0.80248831 2.3596345 0 0 Z M6 7 C6.66 7 7.32 7 8 7 C8 7.66 8 8.32 8 9 C7.34 9 6.68 9 6 9 C6 8.34 6 7.68 6 7 Z " fill="#4C6773" transform="translate(202,141)"/>
<path d="M0 0 C0.99 0.33 1.98 0.66 3 1 C4.37142857 10.14285714 4.37142857 10.14285714 3 13 C2.01 13.33 1.02 13.66 0 14 C0.01160156 13.30132812 0.02320312 12.60265625 0.03515625 11.8828125 C0.04417969 10.97273437 0.05320312 10.06265625 0.0625 9.125 C0.07410156 8.22007813 0.08570312 7.31515625 0.09765625 6.3828125 C0.16249257 3.9831415 0.16249257 3.9831415 -1 2 C-0.67 1.34 -0.34 0.68 0 0 Z " fill="#4D646F" transform="translate(80,119)"/>
<path d="M0 0 C2.64 0 5.28 0 8 0 C7.67 3.63 7.34 7.26 7 11 C6.67 11 6.34 11 6 11 C5.67 8.03 5.34 5.06 5 2 C3.68 2.33 2.36 2.66 1 3 C-0.29660434 5.49034386 -0.29660434 5.49034386 -1 8 C-2 6 -2 6 -1.0625 2.875 C-0.5365625 1.451875 -0.5365625 1.451875 0 0 Z " fill="#3A4E57" transform="translate(234,251)"/>
<path d="M0 0 C2.29633824 3.44450737 2.54016485 5.93812283 3 10 C0.03 10 -2.94 10 -6 10 C-5.67 9.01 -5.34 8.02 -5 7 C-3.02 7.495 -3.02 7.495 -1 8 C-0.17361624 5.10765685 0 3.11257569 0 0 Z " fill="#3D535A" transform="translate(188,147)"/>
<path d="M0 0 C1.41655793 -0.0272415 2.83327045 -0.04650467 4.25 -0.0625 C5.43335938 -0.07990234 5.43335938 -0.07990234 6.640625 -0.09765625 C8.90691002 -0.00385306 10.8288895 0.36758937 13 1 C13 1.66 13 2.32 13 3 C9.04 3 5.08 3 1 3 C0.67 2.01 0.34 1.02 0 0 Z " fill="#516D7B" transform="translate(136,113)"/>
<path d="M0 0 C0.66 0 1.32 0 2 0 C2.06058594 0.91523438 2.12117187 1.83046875 2.18359375 2.7734375 C2.26738281 3.96195312 2.35117188 5.15046875 2.4375 6.375 C2.51871094 7.55835938 2.59992188 8.74171875 2.68359375 9.9609375 C2.81084936 12.91518901 2.81084936 12.91518901 4 15 C2.68 14.67 1.36 14.34 0 14 C0 9.38 0 4.76 0 0 Z " fill="#506A76" transform="translate(179,276)"/>
<path d="M0 0 C2.76223278 2.76223278 2.57856291 5.20706617 3 9 C1.68 9.33 0.36 9.66 -1 10 C-1 10.99 -1 11.98 -1 13 C-1.66 13 -2.32 13 -3 13 C-3.33 12.01 -3.66 11.02 -4 10 C-3.525625 9.649375 -3.05125 9.29875 -2.5625 8.9375 C-0.32126175 6.15836457 -0.32882342 3.4855283 0 0 Z " fill="#496675" transform="translate(38,233)"/>
<path d="M0 0 C0.33 1.32 0.66 2.64 1 4 C0.34 4 -0.32 4 -1 4 C-0.7215625 4.9590625 -0.7215625 4.9590625 -0.4375 5.9375 C-0.293125 6.618125 -0.14875 7.29875 0 8 C-0.33 8.33 -0.66 8.66 -1 9 C-1.07271741 11.35313555 -1.08370868 13.70833668 -1.0625 16.0625 C-1.05347656 17.35285156 -1.04445313 18.64320313 -1.03515625 19.97265625 C-1.02355469 20.97167969 -1.01195313 21.97070312 -1 23 C-1.66 23 -2.32 23 -3 23 C-3.08733513 19.91684615 -3.14050127 16.83401173 -3.1875 13.75 C-3.21263672 12.87730469 -3.23777344 12.00460938 -3.26367188 11.10546875 C-3.33834499 4.58401668 -3.33834499 4.58401668 -1.48828125 1.390625 C-0.99714844 0.93171875 -0.50601563 0.4728125 0 0 Z " fill="#344E5A" transform="translate(98,150)"/>
<path d="M0 0 C0.33 0.66 0.66 1.32 1 2 C-0.5625 4.0625 -0.5625 4.0625 -3 6 C-6.75 5.75 -6.75 5.75 -10 5 C-7.3401439 1.55783328 -4.09711714 1.00495326 0 0 Z " fill="#4B6472" transform="translate(130,152)"/>
<path d="M0 0 C0.99 0.33 1.98 0.66 3 1 C2.67 1.33 2.34 1.66 2 2 C2.99 2.99 3.98 3.98 5 5 C2.4345406 7.5654594 0.52313332 7.54046087 -3 8 C-2.01 5.36 -1.02 2.72 0 0 Z " fill="#3C5B6A" transform="translate(160,118)"/>
<path d="M0 0 C2.13586678 3.20380017 2.23132175 4.01939967 2.125 7.6875 C2.10695313 8.49574219 2.08890625 9.30398438 2.0703125 10.13671875 C2.03550781 11.05904297 2.03550781 11.05904297 2 12 C1.01 11.34 0.02 10.68 -1 10 C-1 9.01 -1 8.02 -1 7 C-1.94978897 4.84971696 -1.94978897 4.84971696 -3 3 C-2.01 2.67 -1.02 2.34 0 2 C0 1.34 0 0.68 0 0 Z " fill="#3A5A69" transform="translate(45,252)"/>
<path d="M0 0 C0.66 0 1.32 0 2 0 C3.28571429 8.42857143 3.28571429 8.42857143 2 13 C-0.24298598 10.75701402 -0.58421156 10.07683445 -1 7 C-0.72686657 4.65885633 -0.40197001 2.32249342 0 0 Z " fill="#0A0B0C" transform="translate(472,200)"/>
<path d="M0 0 C-0.33 0.66 -0.66 1.32 -1 2 C-0.67 2.99 -0.34 3.98 0 5 C-2.31 5.66 -4.62 6.32 -7 7 C-7 5.35 -7 3.7 -7 2 C-4.35261084 0.5393715 -3.10551666 0 0 0 Z " fill="#3C5D6D" transform="translate(123,154)"/>
<path d="M0 0 C1.32 0.66 2.64 1.32 4 2 C3.01 2.495 3.01 2.495 2 3 C1.67 3.99 1.34 4.98 1 6 C0.01 5.01 -0.98 4.02 -2 3 C-1.34 2.01 -0.68 1.02 0 0 Z M-4 6 C-2.68 6 -1.36 6 0 6 C0 6.99 0 7.98 0 9 C-0.99 9.33 -1.98 9.66 -3 10 C-3.33 8.68 -3.66 7.36 -4 6 Z " fill="#3E5A66" transform="translate(78,116)"/>
<path d="M0 0 C0.66 0.33 1.32 0.66 2 1 C2 1.33 2 1.66 2 2 C2.66 2 3.32 2 4 2 C4 2.99 4 3.98 4 5 C3.01 5.33 2.02 5.66 1 6 C0.34 5.67 -0.32 5.34 -1 5 C-1.33 5.66 -1.66 6.32 -2 7 C-3 4 -3 4 -3 1 C-2.01 0.67 -1.02 0.34 0 0 Z " fill="#466575" transform="translate(41,249)"/>
<path d="M0 0 C4.29926263 1.59231949 6.35005733 4.39313359 9 8 C9 8.99 9 9.98 9 11 C8.01 10.67 7.02 10.34 6 10 C5.9175 9.21625 5.835 8.4325 5.75 7.625 C5.29150599 4.8553382 5.29150599 4.8553382 3 3.875 C2.34 3.58625 1.68 3.2975 1 3 C0.67 2.01 0.34 1.02 0 0 Z " fill="#050807" transform="translate(426,193)"/>
<path d="M0 0 C0.66 0 1.32 0 2 0 C1.855625 0.61488281 1.71125 1.22976562 1.5625 1.86328125 C1.376875 2.67152344 1.19125 3.47976562 1 4.3125 C0.814375 5.11300781 0.62875 5.91351563 0.4375 6.73828125 C-0.09495823 9.10695938 -0.09495823 9.10695938 0 12 C-0.99 12 -1.98 12 -3 12 C-2.14285714 3.42857143 -2.14285714 3.42857143 0 0 Z " fill="#4F6774" transform="translate(65,155)"/>
<path d="M0 0 C0.99 0.33 1.98 0.66 3 1 C3.38218767 2.65614657 3.71395102 4.32457024 4 6 C3 7 3 7 1.15234375 7.09765625 C-0.8984375 7.06510417 -2.94921875 7.03255208 -5 7 C-5 6.67 -5 6.34 -5 6 C-3.35 6 -1.7 6 0 6 C-0.2784375 4.7934375 -0.2784375 4.7934375 -0.5625 3.5625 C-0.706875 2.716875 -0.85125 1.87125 -1 1 C-0.67 0.67 -0.34 0.34 0 0 Z " fill="#0A0A0A" transform="translate(271,210)"/>
<path d="M0 0 C4.5076467 0.53031138 7.41954788 2.25221116 11 5 C11 5.66 11 6.32 11 7 C6.00724943 5.72278474 3.42388092 3.82669043 0 0 Z " fill="#4D6672" transform="translate(161,119)"/>
<path d="M0 0 C3 2 3 2 3.875 4.875 C4 8 4 8 1 12 C0.67 8.04 0.34 4.08 0 0 Z " fill="#425B66" transform="translate(38,255)"/>
<path d="M0 0 C0.66 0 1.32 0 2 0 C0.25 6.75 0.25 6.75 -2 9 C-2.99 9 -3.98 9 -5 9 C-4.67 8.01 -4.34 7.02 -4 6 C-3.34 6 -2.68 6 -2 6 C-1.34 4.02 -0.68 2.04 0 0 Z " fill="#0A0A0A" transform="translate(402,197)"/>
<path d="M0 0 C0.99 0 1.98 0 3 0 C3.76173392 4.3164922 4.16063604 7.74433453 3 12 C0.50494038 9.50494038 0.64051624 8.32671112 0.375 4.875 C0.30023438 3.96492187 0.22546875 3.05484375 0.1484375 2.1171875 C0.09945312 1.41851562 0.05046875 0.71984375 0 0 Z " fill="#496571" transform="translate(87,157)"/>
<path d="M0 0 C3.78452355 0.52562827 6.26514133 1.26514133 9 4 C9.75 6.6875 9.75 6.6875 10 9 C9.34 9 8.68 9 8 9 C6.98133771 7.34467377 5.98189187 5.67739862 5 4 C4.34 3.67 3.68 3.34 3 3 C3 2.34 3 1.68 3 1 C2.01 0.67 1.02 0.34 0 0 Z " fill="#506977" transform="translate(212,117)"/>
<path d="M0 0 C0.99 1.485 0.99 1.485 2 3 C5.05429073 4.21284876 5.05429073 4.21284876 8 5 C7.67 5.99 7.34 6.98 7 8 C4.69 7.34 2.38 6.68 0 6 C0 4.02 0 2.04 0 0 Z " fill="#4B6774" transform="translate(238,264)"/>
<path d="M0 0 C1.32 0 2.64 0 4 0 C4.66 0.66 5.32 1.32 6 2 C5.01 3.485 5.01 3.485 4 5 C1.375 5.1875 1.375 5.1875 -1 5 C-0.67 3.35 -0.34 1.7 0 0 Z " fill="#476674" transform="translate(183,150)"/>
<path d="M0 0 C0.99 0.66 1.98 1.32 3 2 C1.02 3.32 -0.96 4.64 -3 6 C-3.66 5.67 -4.32 5.34 -5 5 C-4 2 -4 2 -1.9375 0.8125 C-1.298125 0.544375 -0.65875 0.27625 0 0 Z " fill="#030405" transform="translate(190,218)"/>
<path d="M0 0 C0.99 0.495 0.99 0.495 2 1 C2.4140625 3.06640625 2.4140625 3.06640625 2.625 5.5625 C2.69976562 6.38878906 2.77453125 7.21507812 2.8515625 8.06640625 C2.92503906 9.02353516 2.92503906 9.02353516 3 10 C2.01 10.495 2.01 10.495 1 11 C-0.20272819 8.59454362 -0.10071472 7.05003047 -0.0625 4.375 C-0.05347656 3.55773437 -0.04445313 2.74046875 -0.03515625 1.8984375 C-0.02355469 1.27195313 -0.01195312 0.64546875 0 0 Z " fill="#08090C" transform="translate(352,203)"/>
<path d="M0 0 C2.0625 0.4375 2.0625 0.4375 4 1 C4 1.66 4 2.32 4 3 C2.68 3.33 1.36 3.66 0 4 C0 4.66 0 5.32 0 6 C-0.99 6.33 -1.98 6.66 -3 7 C-1.125 1.125 -1.125 1.125 0 0 Z " fill="#080A0C" transform="translate(120,192)"/>
<path d="M0 0 C0.99 0.33 1.98 0.66 3 1 C5.00875442 0.72428861 7.01178687 0.39764263 9 0 C6.44008376 2.01136276 3.95409701 3.62845496 1 5 C0.67 3.35 0.34 1.7 0 0 Z " fill="#2D4D57" transform="translate(107,161)"/>
<path d="M0 0 C0.66 0 1.32 0 2 0 C0.515 5.445 0.515 5.445 -1 11 C-1.66 9.68 -2.32 8.36 -3 7 C-1.625 3.25 -1.625 3.25 0 0 Z " fill="#52666E" transform="translate(78,138)"/>
<path d="M0 0 C0.99 0 1.98 0 3 0 C4.6875 2 4.6875 2 6 4 C3.69 4.66 1.38 5.32 -1 6 C-1 3 -1 3 0 0 Z " fill="#3C5B66" transform="translate(124,115)"/>
<path d="M0 0 C2 2 2 2 2.1953125 4.3828125 C2.17210937 5.28773438 2.14890625 6.19265625 2.125 7.125 C2.10695313 8.03507813 2.08890625 8.94515625 2.0703125 9.8828125 C2.04710937 10.58148438 2.02390625 11.28015625 2 12 C1.67 12 1.34 12 1 12 C1 9.69 1 7.38 1 5 C0.01 4.67 -0.98 4.34 -2 4 C-1.34 2.68 -0.68 1.36 0 0 Z " fill="#37565F" transform="translate(33,205)"/>
<path d="M0 0 C3 1 3 1 4.1875 2.875 C5 5 5 5 5 8 C3.0625 7.375 3.0625 7.375 1 6 C0.25 2.875 0.25 2.875 0 0 Z " fill="#06090A" transform="translate(273,189)"/>
<path d="M0 0 C0.66 0.66 1.32 1.32 2 2 C1.25 4.4375 1.25 4.4375 0 7 C-2.125 7.8125 -2.125 7.8125 -4 8 C-1.125 1.125 -1.125 1.125 0 0 Z " fill="#4D6875" transform="translate(42,158)"/>
<path d="M0 0 C1.65 0.33 3.3 0.66 5 1 C3.35 2.98 1.7 4.96 0 7 C-0.93423645 3.98968256 -1.04449911 3.13349732 0 0 Z " fill="#3B5662" transform="translate(71,111)"/>
<path d="M0 0 C1.1875 1.5625 1.1875 1.5625 2 4 C0.625 7.75 0.625 7.75 -1 11 C-1.66 11 -2.32 11 -3 11 C-2.32829194 7.1936543 -1.27253436 3.64793184 0 0 Z " fill="#4A5D68" transform="translate(91,145)"/>
<path d="M0 0 C0.66 1.32 1.32 2.64 2 4 C0.02 4.99 0.02 4.99 -2 6 C-2 5.34 -2 4.68 -2 4 C-2.66 4 -3.32 4 -4 4 C-4 3.34 -4 2.68 -4 2 C-2.68 1.34 -1.36 0.68 0 0 Z " fill="#3C5D6D" transform="translate(244,289)"/>
<path d="M0 0 C2.475 0.99 2.475 0.99 5 2 C4.67 2.99 4.34 3.98 4 5 C3.01 5 2.02 5 1 5 C0.67 3.35 0.34 1.7 0 0 Z " fill="#0A0B0B" transform="translate(372,204)"/>
<path d="M0 0 C2.31 0 4.62 0 7 0 C6.67 0.99 6.34 1.98 6 3 C3.66666667 3 1.33333333 3 -1 3 C-0.67 2.01 -0.34 1.02 0 0 Z " fill="#506B76" transform="translate(128,114)"/>
</svg>
